<svg width="1956" height="339" viewBox="0 0 1956 339" fill="none" xmlns="http://www.w3.org/2000/svg">
<circle cx="81" cy="253" r="81" fill="#1A1A1A"/>
<circle cx="1701" cy="253" r="81" fill="#1A1A1A"/>
<circle cx="243" cy="253" r="81" fill="#1A1A1A"/>
<circle cx="405" cy="253" r="81" fill="#1A1A1A"/>
<circle cx="567" cy="253" r="81" fill="#1A1A1A"/>
<circle cx="729" cy="253" r="81" fill="#1A1A1A"/>
<circle cx="891" cy="253" r="81" fill="#1A1A1A"/>
<circle cx="1053" cy="253" r="81" fill="#1A1A1A"/>
<circle cx="1215" cy="253" r="81" fill="#1A1A1A"/>
<circle cx="1377" cy="253" r="81" fill="#1A1A1A"/>
<circle cx="1539" cy="253" r="81" fill="#1A1A1A"/>
<circle cx="81" cy="102" r="81" fill="#1A1A1A"/>
<circle cx="243" cy="102" r="81" fill="#1A1A1A"/>
<circle cx="405" cy="102" r="81" fill="#1A1A1A"/>
<circle cx="567" cy="102" r="81" fill="#1A1A1A"/>
<circle cx="729" cy="102" r="81" fill="#1A1A1A"/>
<circle cx="891" cy="102" r="81" fill="#1A1A1A"/>
<circle cx="1053" cy="102" r="81" fill="#1A1A1A"/>
<circle cx="1215" cy="102" r="81" fill="#1A1A1A"/>
<circle cx="1377" cy="102" r="81" fill="#1A1A1A"/>
<circle cx="1539" cy="102" r="81" fill="#1A1A1A"/>
<circle cx="1863" cy="253" r="81" fill="#1A1A1A"/>
<circle cx="1701" cy="102" r="81" fill="#1A1A1A"/>
<circle cx="1863" cy="102" r="81" fill="#1A1A1A"/>
<rect x="12" y="220" width="1944" height="119" fill="#1A1A1A"/>
<rect x="12" width="1944" height="119" fill="#1A1A1A"/>
</svg>
