<svg width="32" height="32" viewBox="0 0 32 32" fill="none" xmlns="http://www.w3.org/2000/svg">
<rect width="32" height="32" rx="4.73925" fill="url(#paint0_linear_170_11)"/>
<rect x="4" y="4" width="23.84" height="23.84" rx="4.73925" fill="black"/>
<path d="M11.0077 8.70471H20.9602V19.3206H22.3819V24.439H19.1592L18.9697 21.9746H11.5764L11.3869 24.439H8.16418V19.3206H9.39638C9.76289 18.9036 10.0346 18.436 10.2115 17.9178C10.4011 17.387 10.5085 16.9068 10.5338 16.4771L11.0077 8.70471ZM17.5479 19.3206V11.3587H14.0408L13.7565 16.0979C13.7186 16.8689 13.529 17.6461 13.1878 18.4297C13.0488 18.7582 12.8908 19.0552 12.7139 19.3206H17.5479Z" fill="white"/>
<defs>
<linearGradient id="paint0_linear_170_11" x1="32" y1="16" x2="0" y2="16" gradientUnits="userSpaceOnUse">
<stop stop-color="#FF0000"/>
<stop offset="0.5" stop-color="#FF00B3"/>
<stop offset="1" stop-color="#FFB700"/>
</linearGradient>
</defs>
</svg>
