<svg width="118" height="118" viewBox="0 0 118 118" fill="none" xmlns="http://www.w3.org/2000/svg">
<g clip-path="url(#clip0_49_108)">
<path d="M30.0131 75.8225C25.4277 71.2357 22.9028 65.1378 22.9045 58.651L22.9047 57.5227C22.9059 44.1351 33.8009 33.2434 47.1894 33.2454L71.3453 33.2491C77.8304 33.2493 83.9275 35.7759 88.513 40.3627C93.0984 44.9495 95.6233 51.0474 95.6224 57.5333L95.6222 58.6615C95.6201 72.05 84.7257 82.9412 71.337 82.9394L47.1824 82.9361C40.6957 82.936 34.5986 80.4093 30.0131 75.8225Z" fill="#242424"/>
<path d="M28.6263 39.8919C33.4687 35.051 39.8965 32.3857 46.7252 32.3867L70.8812 32.3903C77.7199 32.3904 84.1488 35.0539 88.9846 39.8912C93.82 44.728 96.4825 51.1586 96.4816 57.9983L96.4814 59.1262C96.4804 65.9549 93.8132 72.3819 88.9708 77.2228C84.1289 82.0633 77.7011 84.7285 70.8724 84.7275L46.7179 84.7244C39.8787 84.7247 33.4489 82.0603 28.613 77.223C23.7767 72.3852 21.1142 65.9547 21.1166 59.1154L21.1167 57.9875C21.1173 51.1593 23.784 44.7327 28.6263 39.8919ZM87.0992 75.3506C91.4415 71.0097 93.833 65.2475 93.8344 59.1258L93.8345 57.998C93.8354 51.8658 91.448 46.0997 87.1125 41.7629C82.777 37.4261 77.0125 35.0379 70.8808 35.0374L46.7248 35.0338C40.6031 35.0333 34.8403 37.4231 30.498 41.7641C26.1562 46.1046 23.7647 51.8668 23.7638 57.988L23.7636 59.1159C23.7618 65.2481 26.1488 71.0137 30.4852 75.3514C34.8212 79.6887 40.586 82.0774 46.7183 82.0774L70.8728 82.0805C76.9945 82.081 82.7574 79.6912 87.0992 75.3506Z" fill="url(#paint0_linear_49_108)"/>
<path d="M30.8749 54.6516C30.5665 54.3432 30.4095 53.893 30.4944 53.4295C32.1267 44.4242 38.8482 39.7585 49.9318 39.9362L56.051 39.9381C56.8124 39.9382 57.4292 40.5551 57.4291 41.3165C57.4289 42.078 56.8121 42.6947 56.0506 42.6946L49.9094 42.6937C40.1982 42.5371 34.5858 46.315 33.206 53.922C33.0707 54.6702 32.3529 55.1669 31.6029 55.0334C31.3273 54.9825 31.0735 54.8495 30.8749 54.6516ZM30.3544 59.8238C30.1051 59.5743 29.9511 59.2297 29.952 58.8499L29.9502 57.9419C29.9504 57.1805 30.5672 56.5639 31.3276 56.5631C32.0892 56.5631 32.7068 57.1809 32.7056 57.9415L32.7075 58.8493C32.7075 59.6108 32.0905 60.2276 31.33 60.2284C31.1488 60.2284 30.9693 60.1927 30.8019 60.1233C30.6345 60.0538 30.4824 59.9521 30.3544 59.8238ZM66.7243 83.9137C66.5774 83.766 66.4667 83.5863 66.401 83.3886C57.4503 55.7393 66.1479 34.3103 66.5219 33.4116C66.805 32.7355 67.5801 32.414 68.2553 32.6932C68.9314 32.9715 69.2506 33.7474 68.9702 34.4243C68.882 34.6368 60.2893 55.8898 68.9262 82.5642C69.1512 83.2606 68.7681 84.0092 68.0715 84.2376C67.5813 84.3967 67.0652 84.2547 66.7243 83.9137ZM71.5295 59.7874C71.4588 58.1979 72.4479 56.8627 73.7388 56.8053L78.5401 56.5915C79.831 56.534 80.9349 57.776 81.0056 59.3655C81.0763 60.9549 80.0872 62.2901 78.7963 62.3476L73.9951 62.5614C72.7042 62.6189 71.6003 61.3769 71.5295 59.7874Z" fill="url(#paint1_linear_49_108)"/>
</g>
<defs>
<linearGradient id="paint0_linear_49_108" x1="83.2132" y1="82.9787" x2="34.3845" y2="34.1354" gradientUnits="userSpaceOnUse">
<stop stop-color="#FF0004"/>
<stop offset="0.5" stop-color="#FF08BD"/>
<stop offset="1" stop-color="#FF820C"/>
</linearGradient>
<linearGradient id="paint1_linear_49_108" x1="77.8127" y1="74.7029" x2="41.3545" y2="38.2338" gradientUnits="userSpaceOnUse">
<stop stop-color="#FF0004"/>
<stop offset="0.5" stop-color="#FF08BD"/>
<stop offset="1" stop-color="#FF820C"/>
</linearGradient>
<clipPath id="clip0_49_108">
<rect width="83.2327" height="83.2327" fill="white" transform="translate(117.709 58.8633) rotate(135.009)"/>
</clipPath>
</defs>
</svg>
